solid OpenSCAD_Model
  facet normal -0 0.0490686 0.998795
    outer loop
      vertex 0 2.53909 5.47352
      vertex 28 2 5.5
      vertex 28 2.53909 5.47352
    endloop
  endfacet
  facet normal 0 0.0490686 0.998795
    outer loop
      vertex 28 2 5.5
      vertex 0 2.53909 5.47352
      vertex 0 2 5.5
    endloop
  endfacet
  facet normal 0 -0.33689 0.941544
    outer loop
      vertex 0 0.403434 5.26317
      vertex 28 0 5.11882
      vertex 28 0.403434 5.26317
    endloop
  endfacet
  facet normal 0 -0.33689 0.941544
    outer loop
      vertex 28 0 5.11882
      vertex 0 0.403434 5.26317
      vertex 0 0 5.11882
    endloop
  endfacet
  facet normal 0 -0.146731 0.989177
    outer loop
      vertex 0 1.46091 5.47352
      vertex 28 0.927003 5.39432
      vertex 28 1.46091 5.47352
    endloop
  endfacet
  facet normal 0 -0.146731 0.989177
    outer loop
      vertex 28 0.927003 5.39432
      vertex 0 1.46091 5.47352
      vertex 0 0.927003 5.39432
    endloop
  endfacet
  facet normal -0 0.24298 0.970031
    outer loop
      vertex 0 3.59657 5.26317
      vertex 28 3.073 5.39432
      vertex 28 3.59657 5.26317
    endloop
  endfacet
  facet normal 0 0.24298 0.970031
    outer loop
      vertex 28 3.073 5.39432
      vertex 0 3.59657 5.26317
      vertex 0 3.073 5.39432
    endloop
  endfacet
  facet normal -0 0.427554 0.90399
    outer loop
      vertex 0 4.27673 5
      vertex 28 4.10476 5.08134
      vertex 28 4.27673 5
    endloop
  endfacet
  facet normal 0 0.427554 0.90399
    outer loop
      vertex 28 4.10476 5.08134
      vertex 0 4.27673 5
      vertex 0 4.10476 5.08134
    endloop
  endfacet
  facet normal -0 0.146731 0.989177
    outer loop
      vertex 0 3.073 5.39432
      vertex 28 2.53909 5.47352
      vertex 28 3.073 5.39432
    endloop
  endfacet
  facet normal 0 0.146731 0.989177
    outer loop
      vertex 28 2.53909 5.47352
      vertex 0 3.073 5.39432
      vertex 0 2.53909 5.47352
    endloop
  endfacet
  facet normal 1 0 0
    outer loop
      vertex 28 99.5966 5.26317
      vertex 28 100 2.75
      vertex 28 100 5.11882
    endloop
  endfacet
  facet normal 1 0 0
    outer loop
      vertex 28 99.073 5.39432
      vertex 28 100 2.75
      vertex 28 99.5966 5.26317
    endloop
  endfacet
  facet normal 1 0 0
    outer loop
      vertex 28 98.5391 5.47352
      vertex 28 100 2.75
      vertex 28 99.073 5.39432
    endloop
  endfacet
  facet normal 1 0 0
    outer loop
      vertex 28 98 5.5
      vertex 28 100 2.75
      vertex 28 98.5391 5.47352
    endloop
  endfacet
  facet normal 1 -0 0
    outer loop
      vertex 28 97.4609 5.47352
      vertex 28 100 2.75
      vertex 28 98 5.5
    endloop
  endfacet
  facet normal 1 -0 0
    outer loop
      vertex 28 96.927 5.39432
      vertex 28 100 2.75
      vertex 28 97.4609 5.47352
    endloop
  endfacet
  facet normal 1 -0 0
    outer loop
      vertex 28 96.4034 5.26317
      vertex 28 100 2.75
      vertex 28 96.927 5.39432
    endloop
  endfacet
  facet normal 1 0 0
    outer loop
      vertex 28 100 2.75
      vertex 28 96.4034 5.26317
      vertex 28 97.25 0
    endloop
  endfacet
  facet normal 1 -0 0
    outer loop
      vertex 28 95.8952 5.08134
      vertex 28 97.25 0
      vertex 28 96.4034 5.26317
    endloop
  endfacet
  facet normal 1 -0 0
    outer loop
      vertex 28 95.7233 5
      vertex 28 97.25 0
      vertex 28 95.8952 5.08134
    endloop
  endfacet
  facet normal 1 -0 0
    outer loop
      vertex 28 4.27673 5
      vertex 28 97.25 0
      vertex 28 95.7233 5
    endloop
  endfacet
  facet normal 1 0 0
    outer loop
      vertex 28 2.75 0
      vertex 28 4.10476 5.08134
      vertex 28 3.59657 5.26317
    endloop
  endfacet
  facet normal 1 0 0
    outer loop
      vertex 28 0 2.75
      vertex 28 3.59657 5.26317
      vertex 28 3.073 5.39432
    endloop
  endfacet
  facet normal 1 0 0
    outer loop
      vertex 28 4.27673 5
      vertex 28 2.75 0
      vertex 28 97.25 0
    endloop
  endfacet
  facet normal 1 0 0
    outer loop
      vertex 28 4.10476 5.08134
      vertex 28 2.75 0
      vertex 28 4.27673 5
    endloop
  endfacet
  facet normal 1 0 0
    outer loop
      vertex 28 0 2.75
      vertex 28 3.073 5.39432
      vertex 28 2.53909 5.47352
    endloop
  endfacet
  facet normal 1 0 0
    outer loop
      vertex 28 0 2.75
      vertex 28 2.53909 5.47352
      vertex 28 2 5.5
    endloop
  endfacet
  facet normal 1 0 0
    outer loop
      vertex 28 0 2.75
      vertex 28 2 5.5
      vertex 28 1.46091 5.47352
    endloop
  endfacet
  facet normal 1 0 0
    outer loop
      vertex 28 0 2.75
      vertex 28 1.46091 5.47352
      vertex 28 0.927003 5.39432
    endloop
  endfacet
  facet normal 1 0 0
    outer loop
      vertex 28 0 2.75
      vertex 28 0.927003 5.39432
      vertex 28 0.403434 5.26317
    endloop
  endfacet
  facet normal 1 0 0
    outer loop
      vertex 28 0 2.75
      vertex 28 0.403434 5.26317
      vertex 28 0 5.11882
    endloop
  endfacet
  facet normal 1 0 0
    outer loop
      vertex 28 3.59657 5.26317
      vertex 28 0 2.75
      vertex 28 2.75 0
    endloop
  endfacet
  facet normal 0 -0.24298 0.970031
    outer loop
      vertex 0 0.927003 5.39432
      vertex 28 0.403434 5.26317
      vertex 28 0.927003 5.39432
    endloop
  endfacet
  facet normal 0 -0.24298 0.970031
    outer loop
      vertex 28 0.403434 5.26317
      vertex 0 0.927003 5.39432
      vertex 0 0.403434 5.26317
    endloop
  endfacet
  facet normal 0 -0.0490685 0.998795
    outer loop
      vertex 0 2 5.5
      vertex 28 1.46091 5.47352
      vertex 28 2 5.5
    endloop
  endfacet
  facet normal 0 -0.0490685 0.998795
    outer loop
      vertex 28 1.46091 5.47352
      vertex 0 2 5.5
      vertex 0 1.46091 5.47352
    endloop
  endfacet
  facet normal -0 0.33689 0.941544
    outer loop
      vertex 0 4.10476 5.08134
      vertex 28 3.59657 5.26317
      vertex 28 4.10476 5.08134
    endloop
  endfacet
  facet normal 0 0.33689 0.941544
    outer loop
      vertex 28 3.59657 5.26317
      vertex 0 4.10476 5.08134
      vertex 0 3.59657 5.26317
    endloop
  endfacet
  facet normal -1 0 0
    outer loop
      vertex 0 100 2.75
      vertex 0 99.5966 5.26317
      vertex 0 100 5.11882
    endloop
  endfacet
  facet normal -1 0 0
    outer loop
      vertex 0 100 2.75
      vertex 0 99.073 5.39432
      vertex 0 99.5966 5.26317
    endloop
  endfacet
  facet normal -1 0 0
    outer loop
      vertex 0 100 2.75
      vertex 0 98.5391 5.47352
      vertex 0 99.073 5.39432
    endloop
  endfacet
  facet normal -1 0 0
    outer loop
      vertex 0 100 2.75
      vertex 0 98 5.5
      vertex 0 98.5391 5.47352
    endloop
  endfacet
  facet normal -1 0 0
    outer loop
      vertex 0 100 2.75
      vertex 0 97.4609 5.47352
      vertex 0 98 5.5
    endloop
  endfacet
  facet normal -1 0 0
    outer loop
      vertex 0 96.4034 5.26317
      vertex 0 100 2.75
      vertex 0 97.25 0
    endloop
  endfacet
  facet normal -1 0 0
    outer loop
      vertex 0 100 2.75
      vertex 0 96.927 5.39432
      vertex 0 97.4609 5.47352
    endloop
  endfacet
  facet normal -1 0 0
    outer loop
      vertex 0 100 2.75
      vertex 0 96.4034 5.26317
      vertex 0 96.927 5.39432
    endloop
  endfacet
  facet normal -1 0 0
    outer loop
      vertex 0 97.25 0
      vertex 0 95.8952 5.08134
      vertex 0 96.4034 5.26317
    endloop
  endfacet
  facet normal -1 0 0
    outer loop
      vertex 0 97.25 0
      vertex 0 95.7233 5
      vertex 0 95.8952 5.08134
    endloop
  endfacet
  facet normal -1 0 0
    outer loop
      vertex 0 97.25 0
      vertex 0 4.27673 5
      vertex 0 95.7233 5
    endloop
  endfacet
  facet normal -1 0 0
    outer loop
      vertex 0 2.75 0
      vertex 0 4.10476 5.08134
      vertex 0 4.27673 5
    endloop
  endfacet
  facet normal -1 -0 0
    outer loop
      vertex 0 4.10476 5.08134
      vertex 0 2.75 0
      vertex 0 3.59657 5.26317
    endloop
  endfacet
  facet normal -1 0 0
    outer loop
      vertex 0 2.75 0
      vertex 0 4.27673 5
      vertex 0 97.25 0
    endloop
  endfacet
  facet normal -1 0 0
    outer loop
      vertex 0 0 2.75
      vertex 0 3.59657 5.26317
      vertex 0 2.75 0
    endloop
  endfacet
  facet normal -1 -0 0
    outer loop
      vertex 0 3.59657 5.26317
      vertex 0 0 2.75
      vertex 0 3.073 5.39432
    endloop
  endfacet
  facet normal -1 -0 0
    outer loop
      vertex 0 3.073 5.39432
      vertex 0 0 2.75
      vertex 0 2.53909 5.47352
    endloop
  endfacet
  facet normal -1 -0 0
    outer loop
      vertex 0 2.53909 5.47352
      vertex 0 0 2.75
      vertex 0 2 5.5
    endloop
  endfacet
  facet normal -1 0 0
    outer loop
      vertex 0 2 5.5
      vertex 0 0 2.75
      vertex 0 1.46091 5.47352
    endloop
  endfacet
  facet normal -1 0 0
    outer loop
      vertex 0 1.46091 5.47352
      vertex 0 0 2.75
      vertex 0 0.927003 5.39432
    endloop
  endfacet
  facet normal -1 0 0
    outer loop
      vertex 0 0.927003 5.39432
      vertex 0 0 2.75
      vertex 0 0.403434 5.26317
    endloop
  endfacet
  facet normal -1 0 0
    outer loop
      vertex 0 0.403434 5.26317
      vertex 0 0 2.75
      vertex 0 0 5.11882
    endloop
  endfacet
  facet normal 0 0 -1
    outer loop
      vertex 0 2.75 0
      vertex 28 97.25 0
      vertex 28 2.75 0
    endloop
  endfacet
  facet normal -0 0 -1
    outer loop
      vertex 28 97.25 0
      vertex 0 2.75 0
      vertex 0 97.25 0
    endloop
  endfacet
  facet normal 0 -1 0
    outer loop
      vertex 0 0 2.75
      vertex 28 0 5.11882
      vertex 0 0 5.11882
    endloop
  endfacet
  facet normal 0 -1 -0
    outer loop
      vertex 28 0 5.11882
      vertex 0 0 2.75
      vertex 28 0 2.75
    endloop
  endfacet
  facet normal 0 -0.336889 0.941544
    outer loop
      vertex 0 96.4034 5.26317
      vertex 28 95.8952 5.08134
      vertex 28 96.4034 5.26317
    endloop
  endfacet
  facet normal 0 -0.336889 0.941544
    outer loop
      vertex 28 95.8952 5.08134
      vertex 0 96.4034 5.26317
      vertex 0 95.8952 5.08134
    endloop
  endfacet
  facet normal -0 0.0490687 0.998795
    outer loop
      vertex 0 98.5391 5.47352
      vertex 28 98 5.5
      vertex 28 98.5391 5.47352
    endloop
  endfacet
  facet normal 0 0.0490687 0.998795
    outer loop
      vertex 28 98 5.5
      vertex 0 98.5391 5.47352
      vertex 0 98 5.5
    endloop
  endfacet
  facet normal -0 0.242981 0.970031
    outer loop
      vertex 0 99.5966 5.26317
      vertex 28 99.073 5.39432
      vertex 28 99.5966 5.26317
    endloop
  endfacet
  facet normal 0 0.242981 0.970031
    outer loop
      vertex 28 99.073 5.39432
      vertex 0 99.5966 5.26317
      vertex 0 99.073 5.39432
    endloop
  endfacet
  facet normal 0 -0.0490687 0.998795
    outer loop
      vertex 0 98 5.5
      vertex 28 97.4609 5.47352
      vertex 28 98 5.5
    endloop
  endfacet
  facet normal 0 -0.0490687 0.998795
    outer loop
      vertex 28 97.4609 5.47352
      vertex 0 98 5.5
      vertex 0 97.4609 5.47352
    endloop
  endfacet
  facet normal 0 -0.242981 0.970031
    outer loop
      vertex 0 96.927 5.39432
      vertex 28 96.4034 5.26317
      vertex 28 96.927 5.39432
    endloop
  endfacet
  facet normal 0 -0.242981 0.970031
    outer loop
      vertex 28 96.4034 5.26317
      vertex 0 96.927 5.39432
      vertex 0 96.4034 5.26317
    endloop
  endfacet
  facet normal 0 -0.14673 0.989177
    outer loop
      vertex 0 97.4609 5.47352
      vertex 28 96.927 5.39432
      vertex 28 97.4609 5.47352
    endloop
  endfacet
  facet normal 0 -0.14673 0.989177
    outer loop
      vertex 28 96.927 5.39432
      vertex 0 97.4609 5.47352
      vertex 0 96.927 5.39432
    endloop
  endfacet
  facet normal 0 -0.427552 0.903991
    outer loop
      vertex 0 95.8952 5.08134
      vertex 28 95.7233 5
      vertex 28 95.8952 5.08134
    endloop
  endfacet
  facet normal 0 -0.427552 0.903991
    outer loop
      vertex 28 95.7233 5
      vertex 0 95.8952 5.08134
      vertex 0 95.7233 5
    endloop
  endfacet
  facet normal -0 0.14673 0.989177
    outer loop
      vertex 0 99.073 5.39432
      vertex 28 98.5391 5.47352
      vertex 28 99.073 5.39432
    endloop
  endfacet
  facet normal 0 0.14673 0.989177
    outer loop
      vertex 28 98.5391 5.47352
      vertex 0 99.073 5.39432
      vertex 0 98.5391 5.47352
    endloop
  endfacet
  facet normal -0 0.336889 0.941544
    outer loop
      vertex 0 100 5.11882
      vertex 28 99.5966 5.26317
      vertex 28 100 5.11882
    endloop
  endfacet
  facet normal 0 0.336889 0.941544
    outer loop
      vertex 28 99.5966 5.26317
      vertex 0 100 5.11882
      vertex 0 99.5966 5.26317
    endloop
  endfacet
  facet normal 0 1 -0
    outer loop
      vertex 28 100 2.75
      vertex 0 100 5.11882
      vertex 28 100 5.11882
    endloop
  endfacet
  facet normal 0 1 0
    outer loop
      vertex 0 100 5.11882
      vertex 28 100 2.75
      vertex 0 100 2.75
    endloop
  endfacet
  facet normal -0 0 1
    outer loop
      vertex 0 95.7233 5
      vertex 28 4.27673 5
      vertex 28 95.7233 5
    endloop
  endfacet
  facet normal 0 0 1
    outer loop
      vertex 28 4.27673 5
      vertex 0 95.7233 5
      vertex 0 4.27673 5
    endloop
  endfacet
  facet normal 0 -0.707107 -0.707107
    outer loop
      vertex 0 2.75 0
      vertex 28 0 2.75
      vertex 0 0 2.75
    endloop
  endfacet
  facet normal 0 -0.707107 -0.707107
    outer loop
      vertex 28 0 2.75
      vertex 0 2.75 0
      vertex 28 2.75 0
    endloop
  endfacet
  facet normal 0 0.707107 -0.707107
    outer loop
      vertex 28 97.25 0
      vertex 0 100 2.75
      vertex 28 100 2.75
    endloop
  endfacet
  facet normal 0 0.707107 -0.707107
    outer loop
      vertex 0 100 2.75
      vertex 28 97.25 0
      vertex 0 97.25 0
    endloop
  endfacet
endsolid OpenSCAD_Model
