solid OpenSCAD_Model
  facet normal -1 0 0
    outer loop
      vertex -9.7464 17.2333 0
      vertex -9.7464 0 2.25
      vertex -9.7464 17.2333 2.25
    endloop
  endfacet
  facet normal -1 0 0
    outer loop
      vertex -9.7464 -4.275 0
      vertex -9.7464 0 2.25
      vertex -9.7464 17.2333 0
    endloop
  endfacet
  facet normal -1 0 0
    outer loop
      vertex -9.7464 -4.275 7.35
      vertex -9.7464 0 2.25
      vertex -9.7464 -4.275 0
    endloop
  endfacet
  facet normal -1 0 0
    outer loop
      vertex -9.7464 0 2.25
      vertex -9.7464 -4.275 7.35
      vertex -9.7464 0 7.35
    endloop
  endfacet
  facet normal -0 0 1
    outer loop
      vertex -9.7464 17.2333 2.25
      vertex -1.20544e-07 0 2.25
      vertex -1.20544e-07 17.2333 2.25
    endloop
  endfacet
  facet normal 0 0 1
    outer loop
      vertex -1.20544e-07 0 2.25
      vertex -9.7464 17.2333 2.25
      vertex -9.7464 0 2.25
    endloop
  endfacet
  facet normal 1 0 0
    outer loop
      vertex -1.20544e-07 0 7.35
      vertex -1.20544e-07 -4.275 7.35
      vertex -1.20544e-07 0 2.25
    endloop
  endfacet
  facet normal 1 -0 0
    outer loop
      vertex -1.20544e-07 0 2.25
      vertex -1.20544e-07 17.2333 0
      vertex -1.20544e-07 17.2333 2.25
    endloop
  endfacet
  facet normal 1 0 0
    outer loop
      vertex -1.20544e-07 0 2.25
      vertex -1.20544e-07 -4.275 0
      vertex -1.20544e-07 17.2333 0
    endloop
  endfacet
  facet normal 1 0 0
    outer loop
      vertex -1.20544e-07 -4.275 0
      vertex -1.20544e-07 0 2.25
      vertex -1.20544e-07 -4.275 7.35
    endloop
  endfacet
  facet normal 0 0 -1
    outer loop
      vertex -9.7464 -4.275 0
      vertex -1.20544e-07 17.2333 0
      vertex -1.20544e-07 -4.275 0
    endloop
  endfacet
  facet normal -0 0 -1
    outer loop
      vertex -1.20544e-07 17.2333 0
      vertex -9.7464 -4.275 0
      vertex -9.7464 17.2333 0
    endloop
  endfacet
  facet normal 0 1 -0
    outer loop
      vertex -1.20544e-07 0 2.25
      vertex -9.7464 0 7.35
      vertex -1.20544e-07 0 7.35
    endloop
  endfacet
  facet normal 0 1 0
    outer loop
      vertex -9.7464 0 7.35
      vertex -1.20544e-07 0 2.25
      vertex -9.7464 0 2.25
    endloop
  endfacet
  facet normal 0 1 -0
    outer loop
      vertex -1.20544e-07 17.2333 0
      vertex -9.7464 17.2333 2.25
      vertex -1.20544e-07 17.2333 2.25
    endloop
  endfacet
  facet normal 0 1 0
    outer loop
      vertex -9.7464 17.2333 2.25
      vertex -1.20544e-07 17.2333 0
      vertex -9.7464 17.2333 0
    endloop
  endfacet
  facet normal -0 0 1
    outer loop
      vertex -9.7464 0 7.35
      vertex -1.20544e-07 -4.275 7.35
      vertex -1.20544e-07 0 7.35
    endloop
  endfacet
  facet normal 0 0 1
    outer loop
      vertex -1.20544e-07 -4.275 7.35
      vertex -9.7464 0 7.35
      vertex -9.7464 -4.275 7.35
    endloop
  endfacet
  facet normal 0 -1 0
    outer loop
      vertex -9.7464 -4.275 0
      vertex -1.20544e-07 -4.275 7.35
      vertex -9.7464 -4.275 7.35
    endloop
  endfacet
  facet normal 0 -1 -0
    outer loop
      vertex -1.20544e-07 -4.275 7.35
      vertex -9.7464 -4.275 0
      vertex -1.20544e-07 -4.275 0
    endloop
  endfacet
  facet normal -1 0 0
    outer loop
      vertex 9.7464 17.2333 0
      vertex 9.7464 0 2.25
      vertex 9.7464 17.2333 2.25
    endloop
  endfacet
  facet normal -1 0 0
    outer loop
      vertex 9.7464 -4.275 0
      vertex 9.7464 0 2.25
      vertex 9.7464 17.2333 0
    endloop
  endfacet
  facet normal -1 0 0
    outer loop
      vertex 9.7464 -4.275 7.35
      vertex 9.7464 0 2.25
      vertex 9.7464 -4.275 0
    endloop
  endfacet
  facet normal -1 0 0
    outer loop
      vertex 9.7464 0 2.25
      vertex 9.7464 -4.275 7.35
      vertex 9.7464 0 7.35
    endloop
  endfacet
  facet normal -0 0 1
    outer loop
      vertex 9.7464 17.2333 2.25
      vertex 19.4928 0 2.25
      vertex 19.4928 17.2333 2.25
    endloop
  endfacet
  facet normal 0 0 1
    outer loop
      vertex 19.4928 0 2.25
      vertex 9.7464 17.2333 2.25
      vertex 9.7464 0 2.25
    endloop
  endfacet
  facet normal 1 0 0
    outer loop
      vertex 19.4928 0 7.35
      vertex 19.4928 -4.275 7.35
      vertex 19.4928 0 2.25
    endloop
  endfacet
  facet normal 1 -0 0
    outer loop
      vertex 19.4928 0 2.25
      vertex 19.4928 17.2333 0
      vertex 19.4928 17.2333 2.25
    endloop
  endfacet
  facet normal 1 0 0
    outer loop
      vertex 19.4928 0 2.25
      vertex 19.4928 -4.275 0
      vertex 19.4928 17.2333 0
    endloop
  endfacet
  facet normal 1 0 0
    outer loop
      vertex 19.4928 -4.275 0
      vertex 19.4928 0 2.25
      vertex 19.4928 -4.275 7.35
    endloop
  endfacet
  facet normal 0 1 -0
    outer loop
      vertex 19.4928 17.2333 0
      vertex 9.7464 17.2333 2.25
      vertex 19.4928 17.2333 2.25
    endloop
  endfacet
  facet normal 0 1 0
    outer loop
      vertex 9.7464 17.2333 2.25
      vertex 19.4928 17.2333 0
      vertex 9.7464 17.2333 0
    endloop
  endfacet
  facet normal 0 0 -1
    outer loop
      vertex 9.7464 -4.275 0
      vertex 19.4928 17.2333 0
      vertex 19.4928 -4.275 0
    endloop
  endfacet
  facet normal -0 0 -1
    outer loop
      vertex 19.4928 17.2333 0
      vertex 9.7464 -4.275 0
      vertex 9.7464 17.2333 0
    endloop
  endfacet
  facet normal 0 1 -0
    outer loop
      vertex 19.4928 0 2.25
      vertex 9.7464 0 7.35
      vertex 19.4928 0 7.35
    endloop
  endfacet
  facet normal 0 1 0
    outer loop
      vertex 9.7464 0 7.35
      vertex 19.4928 0 2.25
      vertex 9.7464 0 2.25
    endloop
  endfacet
  facet normal -0 0 1
    outer loop
      vertex 9.7464 0 7.35
      vertex 19.4928 -4.275 7.35
      vertex 19.4928 0 7.35
    endloop
  endfacet
  facet normal 0 0 1
    outer loop
      vertex 19.4928 -4.275 7.35
      vertex 9.7464 0 7.35
      vertex 9.7464 -4.275 7.35
    endloop
  endfacet
  facet normal 0 -1 0
    outer loop
      vertex 9.7464 -4.275 0
      vertex 19.4928 -4.275 7.35
      vertex 9.7464 -4.275 7.35
    endloop
  endfacet
  facet normal 0 -1 -0
    outer loop
      vertex 19.4928 -4.275 7.35
      vertex 9.7464 -4.275 0
      vertex 19.4928 -4.275 0
    endloop
  endfacet
endsolid OpenSCAD_Model
